<svg width="385" height="72" viewBox="0 0 385 72" fill="none" xmlns="http://www.w3.org/2000/svg">
<path d="M0 4C0 4 0 49.2571 0 53.3714C0 59.7714 4.57143 62.5143 10.9714 62.5143C22.8571 62.5143 25.6 68 25.6 68C25.6 68 28.3429 62.5143 40.2286 62.5143C46.6286 62.5143 51.2 59.7714 51.2 53.3714C51.2 49.2571 51.2 4 51.2 4H0ZM40.2286 60.6857C31.9543 60.6857 27.6571 63.2457 25.6 65.1657C23.5429 63.2457 19.2457 60.6857 10.9714 60.6857C6.44571 60.6857 3.56571 59.3143 2.42286 56.5714L3.06286 56.48C14.72 54.4686 26.1943 54.6057 26.1943 54.6057C26.3314 54.1943 26.3314 53.6457 26.56 53.0971C26.88 52.2743 27.9314 51.1771 29.8057 51.1771L31.4971 51.3143C31.4971 49.2571 32.4114 47.4286 33.92 46.1943C34.0114 46.1029 34.1029 46.0114 34.1029 46.0114C33.1886 46.0114 32.5943 45.92 32.5943 45.92C30.6286 45.7371 29.8514 43.7714 29.0286 41.2571C28.7543 40.3886 28.48 39.4743 28.1143 38.56C26.9714 34.8571 22.8114 34.4457 21.9429 35.0857C18.1486 32.5257 14.8571 35.0857 14.4457 36.0914C14.9486 36.0914 15.36 36.5029 15.36 37.0057C15.36 37.3714 15.1771 37.6457 14.9029 37.7829L14.2629 38.1943C13.9429 38.4229 13.7143 38.7886 13.7143 39.2L10.6514 41.7143C10.4686 41.8971 10.3314 42.2171 10.5143 42.5371L12.1143 44.0457C12.16 43.5429 12.16 43.0857 12.9371 42.8114C14.3543 42.4 14.72 42.9943 14.8571 43.4057C14.9486 43.7257 14.9486 44 14.8571 44.2743H14.7657C14.3086 44 13.7143 43.8629 13.12 44.0457C12.5257 44.2286 12.1143 44.6857 11.7943 44.8229C11.4743 45.0057 11.1086 45.0514 10.88 44.96C10.7886 44.9143 10.6514 44.8229 10.6057 44.64C10.5143 44.4571 10.5143 44.2286 10.56 43.9086C10.3314 44.0457 10.1486 44.32 10.0571 44.64C9.96571 44.96 10.1029 45.3714 10.3771 45.6457C10.6514 45.92 11.0629 46.0114 11.3829 45.9657C11.7029 45.9657 12.0229 45.8286 12.2971 45.6457C12.3429 45.6457 12.3429 45.6 12.3886 45.5543C12.3886 45.6914 12.3429 45.8743 12.3429 46.0571C12.3429 46.6971 12.6629 47.1086 13.0286 47.2914C13.1657 47.3829 13.3943 47.2457 13.3943 47.0171C13.3943 46.0114 13.9429 45.8286 14.8114 45.5086C15.4971 45.28 16.5943 44.8686 17.1886 44.64C17.3257 44.5943 17.6914 44.4571 17.6914 44.4571C18.3314 44.1371 18.88 43.68 19.2914 43.0857C19.84 42.0343 19.9314 41.44 19.9314 41.44C19.9771 41.0286 19.9771 40.8 19.9771 40.8C20.8914 40.8 21.1657 41.4857 21.12 42.0343C20.8914 43.5429 19.9314 44.4571 18.7429 45.6C18.2857 46.0571 17.6457 46.56 17.3257 47.0171C16.2286 48.5714 16.0457 50.3543 18.5143 51.8171C18.6057 51.8629 18.8343 52.0457 18.9257 52.1829C19.6114 53.0057 18.9714 53.6914 18.56 53.6914C18.0114 52.8229 17.5086 52.7314 17.2343 52.5943C16.4571 52.2743 15.4514 52.0457 14.9486 51.0857C13.9429 51.68 13.1657 51.9543 11.52 51.9543H7.58857C6.44571 51.9543 5.39429 52.7314 5.30286 53.8286C5.30286 54.0571 5.30286 54.6971 5.30286 54.6971C4.29714 54.8343 3.24571 54.9257 2.28571 55.0629L2.01143 55.2C1.92 54.6514 1.82857 54.0114 1.82857 53.3714V5.82857H49.3714V53.3714C49.3714 54.0571 49.3257 54.6514 49.1886 55.2L48.8686 55.1543C47.2229 54.9257 45.8057 54.7429 44.1143 54.56C44.1143 54.56 44.3886 54.0571 44.7086 53.0971C44.7086 53.0971 45.7143 52.7771 46.3543 52.0914C46.8114 51.6343 47.1771 51.04 47.4057 50.5371C47.5429 50.2171 47.68 49.8971 47.7257 49.5771C47.8171 48.9829 47.7257 48.2971 47.4971 47.5657C46.8571 45.92 45.6229 44.64 43.7943 43.8171C42.3771 43.1771 38.9943 42.9029 38.5371 42.9029C34.3771 42.72 33.3257 41.9886 33.3257 41.9886L33.28 41.9429C32.7771 41.5771 32.4571 40.9829 32.4571 40.3429C32.4571 39.2457 33.3257 38.3771 34.4686 38.3771C34.5143 38.3771 35.2 38.3314 36.1143 39.1086C36.16 40.8 37.5314 42.1257 39.1771 42.1257C40.8686 42.1257 42.24 40.7543 42.24 39.0629C42.24 38.24 41.92 37.4629 41.3714 36.9143C41.3714 37.0057 41.4171 37.1429 41.4171 37.2343C41.4171 38.4686 40.4114 39.4743 39.1771 39.4743C38.5371 39.4743 37.9429 39.2 37.5314 38.7886C37.5314 38.7886 37.44 38.6971 37.3029 38.6057C35.9314 37.1886 34.6514 37.1429 34.3771 37.1886C32.5943 37.1886 31.1771 38.6514 31.1771 40.3886C31.1771 41.3943 31.68 42.3543 32.5029 42.9943C32.7771 43.2229 34.0571 44.0457 38.4914 44.2286C39.1771 44.2743 42.1943 44.5486 43.2914 45.0514C44.7543 45.7371 45.8057 46.7886 46.3086 48.1143C46.5829 48.9829 46.5829 49.6686 46.2629 50.2171C46.1714 50.3543 46.08 50.4457 45.9886 50.5829C45.8514 50.72 45.6686 50.7657 45.4857 50.7657C45.2114 50.7657 44.9829 50.6286 44.8457 50.4457C44.8 50.4 44.7086 50.2629 44.7086 50.2629C44.4343 49.6686 44.0686 48.9829 43.6571 48.3886C43.0171 47.4286 42.1029 46.6514 41.0514 46.1486C41.0057 46.1029 40.96 46.1029 40.9143 46.0571C40.3657 45.8286 39.7714 45.6457 39.1771 45.5543H39.1314C38.9029 45.5086 38.6286 45.5086 38.3543 45.5086H38.1257C35.5657 45.5086 33.4629 47.5657 33.4629 50.1257C33.4629 50.1257 33.4629 50.1257 33.4629 50.1714C33.4629 50.2171 33.4629 50.3086 33.4629 50.3543C33.5543 51.4971 34.5143 52.4114 35.7029 52.4114C35.7029 52.4114 36.1143 52.4114 38.4914 52.4114C39.4971 52.4114 39.5886 53.3257 39.5886 53.3257C34.4229 53.9657 32.2286 52.9143 29.9886 52.8686C29.2571 52.8686 28.6171 53.28 28.2514 53.8743C28.2514 53.8743 28.0229 54.2857 27.9771 54.6514C27.9771 54.7429 27.9771 54.88 27.9771 54.88C27.9771 54.88 37.8057 55.1086 48.1371 56.7086L48.8229 56.8C47.6343 59.3143 44.7543 60.6857 40.2286 60.6857ZM12.9371 45.0971L12.9829 45.1429C12.9371 45.1429 12.8914 45.1429 12.8914 45.1429L12.9371 45.0971Z" fill="#333333"/>
<path d="M33.0057 26.4C33.1886 25.8972 33.1886 25.6686 32.6857 25.0743C33.28 24.8457 33.5086 25.6229 33.5086 25.6229C33.6457 25.2114 33.6 24.8457 33.5543 24.6171C33.4171 24.0229 32.64 23.8857 31.9543 24.3886C31.5886 24.6629 31.3143 25.2572 30.9029 25.3943C30.6743 25.44 29.1657 24.9829 29.1657 24.9829C29.44 24.5714 29.8514 24.1143 29.8514 23.52C29.8971 22.9257 29.3029 21.9657 28.3886 21.92C28.16 21.92 27.9314 21.9657 27.7943 22.0114C27.7943 21.9657 27.84 21.92 27.84 21.8743C27.9314 21.6 28.1143 21.1429 28.2971 20.7314C30.1714 21.6457 32.7314 21.92 34.9714 21.0514L34.6971 20.1829C36.4343 20.6857 37.3029 20.5943 38.2171 20.5029L36.8457 19.2229C40.32 19.6343 41.3257 19.2229 42.4229 18.4L38.5829 17.0743C42.2857 17.0743 44.2514 15.84 45.8514 13.8743L40.0914 14.56C44.7543 13.4629 46.8571 11.0857 47.0857 8.29715C41.7829 12.7772 33.4171 12.5486 31.4057 12.5486C30.8114 12.5486 30.1257 13.0972 30.1257 13.6914C30.1257 14.6514 30.9943 14.9257 30.9943 16.2057C30.9943 16.8457 30.4 17.44 29.7143 17.6229L28.8 17.0286C28.9371 14.56 28.7086 12.9143 27.6571 12.6857C27.6571 12.6857 28.9371 12.2286 28.7543 11.04C27.52 11.5429 26.88 11.4057 25.5086 11.4057C22.6286 11.4057 22.6286 13.1429 22.72 13.5543C23.04 13.3257 23.4057 13.1886 23.9543 13.1886C24.4114 13.1886 24.6857 13.7829 24.6857 14.1943C24.6857 15.6571 23.4514 16.2057 22.4457 17.2114L22.08 17.4857C21.3029 17.44 20.5257 16.7543 20.5257 16.0229C20.5257 14.7429 21.3486 14.5143 21.3486 13.6C21.3486 13.0057 20.6629 12.3657 20.1143 12.5029C17.3257 13.0514 8.64 11.7714 4.98285 8.38858C5.21142 11.04 7.49714 13.28 11.9771 14.3772L6.17142 13.7371C7.72571 15.6571 9.64571 16.8 13.2114 16.8L9.6 18.2629C10.6514 19.0857 11.6571 19.4972 14.9943 19.0857L13.6686 20.32C14.5371 20.4114 15.36 20.5029 17.0514 20.0457L16.8229 20.8686C18.88 21.6914 20.9829 21.6457 23.04 20.7314C23.1771 21.1429 23.4057 21.6 23.5429 21.92C23.5429 21.9657 23.5886 22.0114 23.5886 22.0572C23.4514 22.0114 23.2686 21.9657 23.04 21.9657C22.1714 22.0114 21.5771 22.9257 21.5771 23.5657C21.6229 24.16 21.9886 24.6171 22.2629 25.0286C22.2629 25.0286 20.7543 25.4857 20.5257 25.44C20.1143 25.3029 19.84 24.7543 19.4743 24.4343C18.7886 23.9314 18.0114 24.1143 17.8743 24.6629C17.8286 24.8914 17.7829 25.2572 17.92 25.6686C17.92 25.6686 18.1943 24.8914 18.7429 25.12C18.24 25.6686 18.24 25.9429 18.4229 26.4457C18.7886 25.7143 19.7943 25.6686 20.5257 26.1257C21.6229 26.8114 21.3943 27.2686 21.0286 27.9543C22.1257 27.5886 22.2629 27.2229 21.6229 25.9429L23.1771 25.3486C23.2686 25.3029 23.36 25.1657 23.3143 25.0743C23.2229 24.7086 23.1314 23.9771 23.8629 23.9314C24.2286 23.9314 24.4114 24.2057 24.5029 24.5257C24.5486 24.8 24.5943 25.0743 24.5943 25.3943C24.5943 27.1314 23.04 28.64 22.4914 28.9143C23.2686 29.3257 24.0457 29.3257 24.8229 28.7772C25.0057 29.4172 25.1886 29.7829 25.6914 30.1486C26.1943 29.7372 26.4229 29.4172 26.56 28.7772C27.3371 29.3257 28.0686 29.3714 28.8914 28.9143C28.3429 28.5943 26.7886 27.1314 26.7886 25.3943C26.7886 25.2114 26.7886 25.0286 26.8343 24.8457C26.9257 24.3886 27.0629 23.84 27.5657 23.8857C28.3429 23.9314 28.2057 24.6629 28.1143 25.0286C28.0686 25.12 28.16 25.2571 28.2514 25.3029L29.8057 25.8972C29.1657 27.1772 29.3029 27.4972 30.4 27.9086C30.0343 27.2229 29.8057 26.7657 30.9029 26.08C31.6343 25.6229 32.64 25.6686 33.0057 26.4Z" fill="#333333"/>
<path d="M79 5C80.24 5 81.3133 5.20667 82.22 5.62C83.14 6.03333 83.8467 6.62 84.34 7.38C84.8333 8.14 85.08 9.04 85.08 10.08C85.08 11.1067 84.8333 12.0067 84.34 12.78C83.8467 13.54 83.14 14.1267 82.22 14.54C81.3133 14.94 80.24 15.14 79 15.14H76.18V19H72.94V5H79ZM78.82 12.5C79.7933 12.5 80.5333 12.2933 81.04 11.88C81.5467 11.4533 81.8 10.8533 81.8 10.08C81.8 9.29333 81.5467 8.69333 81.04 8.28C80.5333 7.85333 79.7933 7.64 78.82 7.64H76.18V12.5H78.82ZM97.4178 13.66C97.4178 13.7 97.3978 13.98 97.3578 14.5H89.2178C89.3645 15.1667 89.7111 15.6933 90.2578 16.08C90.8045 16.4667 91.4845 16.66 92.2978 16.66C92.8578 16.66 93.3511 16.58 93.7778 16.42C94.2178 16.2467 94.6245 15.98 94.9978 15.62L96.6578 17.42C95.6445 18.58 94.1645 19.16 92.2178 19.16C91.0045 19.16 89.9311 18.9267 88.9978 18.46C88.0645 17.98 87.3445 17.32 86.8378 16.48C86.3311 15.64 86.0778 14.6867 86.0778 13.62C86.0778 12.5667 86.3245 11.62 86.8178 10.78C87.3245 9.92667 88.0111 9.26667 88.8778 8.8C89.7578 8.32 90.7378 8.08 91.8178 8.08C92.8711 8.08 93.8245 8.30667 94.6778 8.76C95.5311 9.21333 96.1978 9.86667 96.6778 10.72C97.1711 11.56 97.4178 12.54 97.4178 13.66ZM91.8378 10.44C91.1311 10.44 90.5378 10.64 90.0578 11.04C89.5778 11.44 89.2845 11.9867 89.1778 12.68H94.4778C94.3711 12 94.0778 11.46 93.5978 11.06C93.1178 10.6467 92.5311 10.44 91.8378 10.44ZM108.429 10.8H102.909V19H99.8094V8.24H108.429V10.8ZM110.083 8.24H113.183V14.64L118.423 8.24H121.283V19H118.183V12.6L112.963 19H110.083V8.24ZM129.322 19.16C128.189 19.16 127.169 18.9267 126.262 18.46C125.369 17.98 124.669 17.32 124.162 16.48C123.655 15.64 123.402 14.6867 123.402 13.62C123.402 12.5533 123.655 11.6 124.162 10.76C124.669 9.92 125.369 9.26667 126.262 8.8C127.169 8.32 128.189 8.08 129.322 8.08C130.455 8.08 131.469 8.32 132.362 8.8C133.255 9.26667 133.955 9.92 134.462 10.76C134.969 11.6 135.222 12.5533 135.222 13.62C135.222 14.6867 134.969 15.64 134.462 16.48C133.955 17.32 133.255 17.98 132.362 18.46C131.469 18.9267 130.455 19.16 129.322 19.16ZM129.322 16.6C130.122 16.6 130.775 16.3333 131.282 15.8C131.802 15.2533 132.062 14.5267 132.062 13.62C132.062 12.7133 131.802 11.9933 131.282 11.46C130.775 10.9133 130.122 10.64 129.322 10.64C128.522 10.64 127.862 10.9133 127.342 11.46C126.822 11.9933 126.562 12.7133 126.562 13.62C126.562 14.5267 126.822 15.2533 127.342 15.8C127.862 16.3333 128.522 16.6 129.322 16.6ZM137.368 8.24H140.468V12.44H145.148V8.24H148.268V19H145.148V14.98H140.468V19H137.368V8.24ZM155.435 8.08C157.101 8.08 158.381 8.48 159.275 9.28C160.168 10.0667 160.615 11.26 160.615 12.86V19H157.695V17.66C157.108 18.66 156.015 19.16 154.415 19.16C153.588 19.16 152.868 19.02 152.255 18.74C151.655 18.46 151.195 18.0733 150.875 17.58C150.555 17.0867 150.395 16.5267 150.395 15.9C150.395 14.9 150.768 14.1133 151.515 13.54C152.275 12.9667 153.441 12.68 155.015 12.68H157.495C157.495 12 157.288 11.48 156.875 11.12C156.461 10.7467 155.841 10.56 155.015 10.56C154.441 10.56 153.875 10.6533 153.315 10.84C152.768 11.0133 152.301 11.2533 151.915 11.56L150.795 9.38C151.381 8.96667 152.081 8.64667 152.895 8.42C153.721 8.19333 154.568 8.08 155.435 8.08ZM155.195 17.06C155.728 17.06 156.201 16.94 156.615 16.7C157.028 16.4467 157.321 16.08 157.495 15.6V14.5H155.355C154.075 14.5 153.435 14.92 153.435 15.76C153.435 16.16 153.588 16.48 153.895 16.72C154.215 16.9467 154.648 17.06 155.195 17.06ZM173.645 8.24V19H170.525V10.8H167.125L167.025 12.7C166.972 14.1133 166.838 15.2867 166.625 16.22C166.412 17.1533 166.065 17.8867 165.585 18.42C165.105 18.9533 164.438 19.22 163.585 19.22C163.132 19.22 162.592 19.14 161.965 18.98L162.125 16.42C162.338 16.4467 162.492 16.46 162.585 16.46C163.052 16.46 163.398 16.2933 163.625 15.96C163.865 15.6133 164.025 15.18 164.105 14.66C164.185 14.1267 164.245 13.4267 164.285 12.56L164.445 8.24H173.645ZM182.465 11.68C183.865 11.6933 184.939 12.0133 185.685 12.64C186.432 13.2533 186.805 14.1267 186.805 15.26C186.805 16.4467 186.385 17.3733 185.545 18.04C184.719 18.6933 183.552 19.02 182.045 19.02L176.645 19V8.24H179.745V11.68H182.465ZM181.765 16.8C182.365 16.8133 182.825 16.6867 183.145 16.42C183.465 16.1533 183.625 15.7533 183.625 15.22C183.625 14.7 183.465 14.32 183.145 14.08C182.839 13.84 182.379 13.7133 181.765 13.7L179.745 13.68V16.8H181.765ZM188.755 8.24H191.855V12.44H196.535V8.24H199.655V19H196.535V14.98H191.855V19H188.755V8.24ZM208.301 11.68C209.701 11.6933 210.761 12.0067 211.481 12.62C212.201 13.2333 212.561 14.1133 212.561 15.26C212.561 16.46 212.155 17.3867 211.341 18.04C210.528 18.6933 209.375 19.02 207.881 19.02L202.641 19V8.24H205.741V11.68H208.301ZM213.721 8.24H216.821V19H213.721V8.24ZM207.601 16.8C208.201 16.8133 208.661 16.6867 208.981 16.42C209.301 16.1533 209.461 15.7533 209.461 15.22C209.461 14.7 209.301 14.32 208.981 14.08C208.675 13.84 208.215 13.7133 207.601 13.7L205.741 13.68V16.8H207.601ZM230.289 13.66C230.289 13.7 230.269 13.98 230.229 14.5H222.089C222.236 15.1667 222.582 15.6933 223.129 16.08C223.676 16.4667 224.356 16.66 225.169 16.66C225.729 16.66 226.222 16.58 226.649 16.42C227.089 16.2467 227.496 15.98 227.869 15.62L229.529 17.42C228.516 18.58 227.036 19.16 225.089 19.16C223.876 19.16 222.802 18.9267 221.869 18.46C220.936 17.98 220.216 17.32 219.709 16.48C219.202 15.64 218.949 14.6867 218.949 13.62C218.949 12.5667 219.196 11.62 219.689 10.78C220.196 9.92667 220.882 9.26667 221.749 8.8C222.629 8.32 223.609 8.08 224.689 8.08C225.742 8.08 226.696 8.30667 227.549 8.76C228.402 9.21333 229.069 9.86667 229.549 10.72C230.042 11.56 230.289 12.54 230.289 13.66ZM224.709 10.44C224.002 10.44 223.409 10.64 222.929 11.04C222.449 11.44 222.156 11.9867 222.049 12.68H227.349C227.242 12 226.949 11.46 226.469 11.06C225.989 10.6467 225.402 10.44 224.709 10.44ZM72.7 32.24H75.8V38.64L81.04 32.24H83.9V43H80.8V36.6L75.58 43H72.7V32.24ZM86.8992 32.24H89.9992V36.44H94.6792V32.24H97.7992V43H94.6792V38.98H89.9992V43H86.8992V32.24ZM115.646 37.58C115.646 39.2467 115.086 40.5667 113.966 41.54C112.859 42.5 111.273 43.0533 109.206 43.2V46.88H106.346V43.2C104.279 43.0533 102.686 42.5067 101.566 41.56C100.459 40.6 99.9059 39.2733 99.9059 37.58C99.9059 35.9133 100.453 34.62 101.546 33.7C102.653 32.78 104.253 32.2467 106.346 32.1V28.16H109.206V32.1C111.273 32.2467 112.859 32.7867 113.966 33.72C115.086 34.6533 115.646 35.94 115.646 37.58ZM102.926 37.58C102.926 38.54 103.199 39.28 103.746 39.8C104.293 40.32 105.159 40.6467 106.346 40.78V34.52C105.159 34.64 104.293 34.9533 103.746 35.46C103.199 35.9533 102.926 36.66 102.926 37.58ZM109.206 40.78C110.393 40.6467 111.259 40.32 111.806 39.8C112.366 39.28 112.646 38.54 112.646 37.58C112.646 36.66 112.366 35.9533 111.806 35.46C111.259 34.9533 110.393 34.64 109.206 34.52V40.78ZM124.099 32.08C125.099 32.08 126.005 32.3133 126.819 32.78C127.645 33.2333 128.292 33.88 128.759 34.72C129.225 35.5467 129.459 36.5133 129.459 37.62C129.459 38.7267 129.225 39.7 128.759 40.54C128.292 41.3667 127.645 42.0133 126.819 42.48C126.005 42.9333 125.099 43.16 124.099 43.16C122.725 43.16 121.645 42.7267 120.859 41.86V46.88H117.739V32.24H120.719V33.48C121.492 32.5467 122.619 32.08 124.099 32.08ZM123.559 40.6C124.359 40.6 125.012 40.3333 125.519 39.8C126.039 39.2533 126.299 38.5267 126.299 37.62C126.299 36.7133 126.039 35.9933 125.519 35.46C125.012 34.9133 124.359 34.64 123.559 34.64C122.759 34.64 122.099 34.9133 121.579 35.46C121.072 35.9933 120.819 36.7133 120.819 37.62C120.819 38.5267 121.072 39.2533 121.579 39.8C122.099 40.3333 122.759 40.6 123.559 40.6ZM135.65 32.08C137.316 32.08 138.596 32.48 139.49 33.28C140.383 34.0667 140.83 35.26 140.83 36.86V43H137.91V41.66C137.323 42.66 136.23 43.16 134.63 43.16C133.803 43.16 133.083 43.02 132.47 42.74C131.87 42.46 131.41 42.0733 131.09 41.58C130.77 41.0867 130.61 40.5267 130.61 39.9C130.61 38.9 130.983 38.1133 131.73 37.54C132.49 36.9667 133.656 36.68 135.23 36.68H137.71C137.71 36 137.503 35.48 137.09 35.12C136.676 34.7467 136.056 34.56 135.23 34.56C134.656 34.56 134.09 34.6533 133.53 34.84C132.983 35.0133 132.516 35.2533 132.13 35.56L131.01 33.38C131.596 32.9667 132.296 32.6467 133.11 32.42C133.936 32.1933 134.783 32.08 135.65 32.08ZM135.41 41.06C135.943 41.06 136.416 40.94 136.83 40.7C137.243 40.4467 137.536 40.08 137.71 39.6V38.5H135.57C134.29 38.5 133.65 38.92 133.65 39.76C133.65 40.16 133.803 40.48 134.11 40.72C134.43 40.9467 134.863 41.06 135.41 41.06ZM148.66 43.16C147.513 43.16 146.48 42.9267 145.56 42.46C144.653 41.98 143.94 41.32 143.42 40.48C142.913 39.64 142.66 38.6867 142.66 37.62C142.66 36.5533 142.913 35.6 143.42 34.76C143.94 33.92 144.653 33.2667 145.56 32.8C146.48 32.32 147.513 32.08 148.66 32.08C149.793 32.08 150.78 32.32 151.62 32.8C152.473 33.2667 153.093 33.94 153.48 34.82L151.06 36.12C150.5 35.1333 149.693 34.64 148.64 34.64C147.827 34.64 147.153 34.9067 146.62 35.44C146.087 35.9733 145.82 36.7 145.82 37.62C145.82 38.54 146.087 39.2667 146.62 39.8C147.153 40.3333 147.827 40.6 148.64 40.6C149.707 40.6 150.513 40.1067 151.06 39.12L153.48 40.44C153.093 41.2933 152.473 41.96 151.62 42.44C150.78 42.92 149.793 43.16 148.66 43.16ZM164.377 34.8H160.737V43H157.637V34.8H153.997V32.24H164.377V34.8ZM172.38 32.08C173.38 32.08 174.287 32.3133 175.1 32.78C175.927 33.2333 176.573 33.88 177.04 34.72C177.507 35.5467 177.74 36.5133 177.74 37.62C177.74 38.7267 177.507 39.7 177.04 40.54C176.573 41.3667 175.927 42.0133 175.1 42.48C174.287 42.9333 173.38 43.16 172.38 43.16C171.007 43.16 169.927 42.7267 169.14 41.86V46.88H166.02V32.24H169V33.48C169.773 32.5467 170.9 32.08 172.38 32.08ZM171.84 40.6C172.64 40.6 173.293 40.3333 173.8 39.8C174.32 39.2533 174.58 38.5267 174.58 37.62C174.58 36.7133 174.32 35.9933 173.8 35.46C173.293 34.9133 172.64 34.64 171.84 34.64C171.04 34.64 170.38 34.9133 169.86 35.46C169.353 35.9933 169.1 36.7133 169.1 37.62C169.1 38.5267 169.353 39.2533 169.86 39.8C170.38 40.3333 171.04 40.6 171.84 40.6ZM190.414 32.24L185.554 43.66C185.06 44.9 184.447 45.7733 183.714 46.28C182.994 46.7867 182.12 47.04 181.094 47.04C180.534 47.04 179.98 46.9533 179.434 46.78C178.887 46.6067 178.44 46.3667 178.094 46.06L179.234 43.84C179.474 44.0533 179.747 44.22 180.054 44.34C180.374 44.46 180.687 44.52 180.994 44.52C181.42 44.52 181.767 44.4133 182.034 44.2C182.3 44 182.54 43.66 182.754 43.18L182.794 43.08L178.134 32.24H181.354L184.374 39.54L187.414 32.24H190.414ZM196.659 38.92H195.039V43H191.919V32.24H195.039V36.42H196.719L199.639 32.24H202.959L199.199 37.4L203.219 43H199.539L196.659 38.92ZM213.693 34.8H210.053V43H206.953V34.8H203.313V32.24H213.693V34.8ZM226.234 32.24L221.374 43.66C220.881 44.9 220.267 45.7733 219.534 46.28C218.814 46.7867 217.941 47.04 216.914 47.04C216.354 47.04 215.801 46.9533 215.254 46.78C214.707 46.6067 214.261 46.3667 213.914 46.06L215.054 43.84C215.294 44.0533 215.567 44.22 215.874 44.34C216.194 44.46 216.507 44.52 216.814 44.52C217.241 44.52 217.587 44.4133 217.854 44.2C218.121 44 218.361 43.66 218.574 43.18L218.614 43.08L213.954 32.24H217.174L220.194 39.54L223.234 32.24H226.234ZM234.079 32.08C235.079 32.08 235.986 32.3133 236.799 32.78C237.626 33.2333 238.272 33.88 238.739 34.72C239.206 35.5467 239.439 36.5133 239.439 37.62C239.439 38.7267 239.206 39.7 238.739 40.54C238.272 41.3667 237.626 42.0133 236.799 42.48C235.986 42.9333 235.079 43.16 234.079 43.16C232.706 43.16 231.626 42.7267 230.839 41.86V46.88H227.719V32.24H230.699V33.48C231.472 32.5467 232.599 32.08 234.079 32.08ZM233.539 40.6C234.339 40.6 234.992 40.3333 235.499 39.8C236.019 39.2533 236.279 38.5267 236.279 37.62C236.279 36.7133 236.019 35.9933 235.499 35.46C234.992 34.9133 234.339 34.64 233.539 34.64C232.739 34.64 232.079 34.9133 231.559 35.46C231.052 35.9933 230.799 36.7133 230.799 37.62C230.799 38.5267 231.052 39.2533 231.559 39.8C232.079 40.3333 232.739 40.6 233.539 40.6ZM241.626 32.24H244.726V36.44H249.406V32.24H252.526V43H249.406V38.98H244.726V43H241.626V32.24ZM261.172 35.68C262.572 35.6933 263.632 36.0067 264.352 36.62C265.072 37.2333 265.432 38.1133 265.432 39.26C265.432 40.46 265.026 41.3867 264.212 42.04C263.399 42.6933 262.246 43.02 260.752 43.02L255.512 43V32.24H258.612V35.68H261.172ZM266.592 32.24H269.692V43H266.592V32.24ZM260.472 40.8C261.072 40.8133 261.532 40.6867 261.852 40.42C262.172 40.1533 262.332 39.7533 262.332 39.22C262.332 38.7 262.172 38.32 261.852 38.08C261.546 37.84 261.086 37.7133 260.472 37.7L258.612 37.68V40.8H260.472ZM283.16 37.66C283.16 37.7 283.14 37.98 283.1 38.5H274.96C275.107 39.1667 275.453 39.6933 276 40.08C276.547 40.4667 277.227 40.66 278.04 40.66C278.6 40.66 279.093 40.58 279.52 40.42C279.96 40.2467 280.367 39.98 280.74 39.62L282.4 41.42C281.387 42.58 279.907 43.16 277.96 43.16C276.747 43.16 275.673 42.9267 274.74 42.46C273.807 41.98 273.087 41.32 272.58 40.48C272.073 39.64 271.82 38.6867 271.82 37.62C271.82 36.5667 272.067 35.62 272.56 34.78C273.067 33.9267 273.753 33.2667 274.62 32.8C275.5 32.32 276.48 32.08 277.56 32.08C278.613 32.08 279.567 32.3067 280.42 32.76C281.273 33.2133 281.94 33.8667 282.42 34.72C282.913 35.56 283.16 36.54 283.16 37.66ZM277.58 34.44C276.873 34.44 276.28 34.64 275.8 35.04C275.32 35.44 275.027 35.9867 274.92 36.68H280.22C280.113 36 279.82 35.46 279.34 35.06C278.86 34.6467 278.273 34.44 277.58 34.44ZM301.916 32.24V43H298.796V34.8H294.316V43H291.216V32.24H301.916ZM311.247 32.08C312.247 32.08 313.154 32.3133 313.967 32.78C314.794 33.2333 315.44 33.88 315.907 34.72C316.374 35.5467 316.607 36.5133 316.607 37.62C316.607 38.7267 316.374 39.7 315.907 40.54C315.44 41.3667 314.794 42.0133 313.967 42.48C313.154 42.9333 312.247 43.16 311.247 43.16C309.874 43.16 308.794 42.7267 308.007 41.86V46.88H304.887V32.24H307.867V33.48C308.64 32.5467 309.767 32.08 311.247 32.08ZM310.707 40.6C311.507 40.6 312.16 40.3333 312.667 39.8C313.187 39.2533 313.447 38.5267 313.447 37.62C313.447 36.7133 313.187 35.9933 312.667 35.46C312.16 34.9133 311.507 34.64 310.707 34.64C309.907 34.64 309.247 34.9133 308.727 35.46C308.22 35.9933 307.967 36.7133 307.967 37.62C307.967 38.5267 308.22 39.2533 308.727 39.8C309.247 40.3333 309.907 40.6 310.707 40.6ZM323.834 43.16C322.7 43.16 321.68 42.9267 320.774 42.46C319.88 41.98 319.18 41.32 318.674 40.48C318.167 39.64 317.914 38.6867 317.914 37.62C317.914 36.5533 318.167 35.6 318.674 34.76C319.18 33.92 319.88 33.2667 320.774 32.8C321.68 32.32 322.7 32.08 323.834 32.08C324.967 32.08 325.98 32.32 326.874 32.8C327.767 33.2667 328.467 33.92 328.974 34.76C329.48 35.6 329.734 36.5533 329.734 37.62C329.734 38.6867 329.48 39.64 328.974 40.48C328.467 41.32 327.767 41.98 326.874 42.46C325.98 42.9267 324.967 43.16 323.834 43.16ZM323.834 40.6C324.634 40.6 325.287 40.3333 325.794 39.8C326.314 39.2533 326.574 38.5267 326.574 37.62C326.574 36.7133 326.314 35.9933 325.794 35.46C325.287 34.9133 324.634 34.64 323.834 34.64C323.034 34.64 322.374 34.9133 321.854 35.46C321.334 35.9933 321.074 36.7133 321.074 37.62C321.074 38.5267 321.334 39.2533 321.854 39.8C322.374 40.3333 323.034 40.6 323.834 40.6ZM342.34 37.66C342.34 37.7 342.32 37.98 342.28 38.5H334.14C334.286 39.1667 334.633 39.6933 335.18 40.08C335.726 40.4667 336.406 40.66 337.22 40.66C337.78 40.66 338.273 40.58 338.7 40.42C339.14 40.2467 339.546 39.98 339.92 39.62L341.58 41.42C340.566 42.58 339.086 43.16 337.14 43.16C335.926 43.16 334.853 42.9267 333.92 42.46C332.986 41.98 332.266 41.32 331.76 40.48C331.253 39.64 331 38.6867 331 37.62C331 36.5667 331.246 35.62 331.74 34.78C332.246 33.9267 332.933 33.2667 333.8 32.8C334.68 32.32 335.66 32.08 336.74 32.08C337.793 32.08 338.746 32.3067 339.6 32.76C340.453 33.2133 341.12 33.8667 341.6 34.72C342.093 35.56 342.34 36.54 342.34 37.66ZM336.76 34.44C336.053 34.44 335.46 34.64 334.98 35.04C334.5 35.44 334.206 35.9867 334.1 36.68H339.4C339.293 36 339 35.46 338.52 35.06C338.04 34.6467 337.453 34.44 336.76 34.44ZM349.471 38.92H347.851V43H344.731V32.24H347.851V36.42H349.531L352.451 32.24H355.771L352.011 37.4L356.031 43H352.351L349.471 38.92ZM366.506 34.8H362.866V43H359.766V34.8H356.126V32.24H366.506V34.8ZM373.829 35.68C375.229 35.6933 376.289 36.0067 377.009 36.62C377.729 37.2333 378.089 38.1133 378.089 39.26C378.089 40.46 377.682 41.3867 376.869 42.04C376.055 42.6933 374.902 43.02 373.409 43.02L368.169 43V32.24H371.269V35.68H373.829ZM379.249 32.24H382.349V43H379.249V32.24ZM373.129 40.8C373.729 40.8133 374.189 40.6867 374.509 40.42C374.829 40.1533 374.989 39.7533 374.989 39.22C374.989 38.7 374.829 38.32 374.509 38.08C374.202 37.84 373.742 37.7133 373.129 37.7L371.269 37.68V40.8H373.129ZM82.44 64.36V67H71.86V64.9L77.26 59.8C77.8333 59.2533 78.22 58.7867 78.42 58.4C78.62 58 78.72 57.6067 78.72 57.22C78.72 56.66 78.5267 56.2333 78.14 55.94C77.7667 55.6333 77.2133 55.48 76.48 55.48C75.8667 55.48 75.3133 55.6 74.82 55.84C74.3267 56.0667 73.9133 56.4133 73.58 56.88L71.22 55.36C71.7667 54.5467 72.52 53.9133 73.48 53.46C74.44 52.9933 75.54 52.76 76.78 52.76C77.82 52.76 78.7267 52.9333 79.5 53.28C80.2867 53.6133 80.8933 54.0933 81.32 54.72C81.76 55.3333 81.98 56.06 81.98 56.9C81.98 57.66 81.82 58.3733 81.5 59.04C81.18 59.7067 80.56 60.4667 79.64 61.32L76.42 64.36H82.44ZM89.7378 67.24C88.5778 67.24 87.5445 66.9533 86.6378 66.38C85.7311 65.8067 85.0178 64.98 84.4978 63.9C83.9911 62.8067 83.7378 61.5067 83.7378 60C83.7378 58.4933 83.9911 57.2 84.4978 56.12C85.0178 55.0267 85.7311 54.1933 86.6378 53.62C87.5445 53.0467 88.5778 52.76 89.7378 52.76C90.8978 52.76 91.9311 53.0467 92.8378 53.62C93.7445 54.1933 94.4511 55.0267 94.9578 56.12C95.4778 57.2 95.7378 58.4933 95.7378 60C95.7378 61.5067 95.4778 62.8067 94.9578 63.9C94.4511 64.98 93.7445 65.8067 92.8378 66.38C91.9311 66.9533 90.8978 67.24 89.7378 67.24ZM89.7378 64.5C90.5911 64.5 91.2578 64.1333 91.7378 63.4C92.2311 62.6667 92.4778 61.5333 92.4778 60C92.4778 58.4667 92.2311 57.3333 91.7378 56.6C91.2578 55.8667 90.5911 55.5 89.7378 55.5C88.8978 55.5 88.2311 55.8667 87.7378 56.6C87.2578 57.3333 87.0178 58.4667 87.0178 60C87.0178 61.5333 87.2578 62.6667 87.7378 63.4C88.2311 64.1333 88.8978 64.5 89.7378 64.5ZM107.655 64.36V67H97.0748V64.9L102.475 59.8C103.048 59.2533 103.435 58.7867 103.635 58.4C103.835 58 103.935 57.6067 103.935 57.22C103.935 56.66 103.742 56.2333 103.355 55.94C102.982 55.6333 102.428 55.48 101.695 55.48C101.082 55.48 100.528 55.6 100.035 55.84C99.5415 56.0667 99.1282 56.4133 98.7948 56.88L96.4348 55.36C96.9815 54.5467 97.7348 53.9133 98.6948 53.46C99.6548 52.9933 100.755 52.76 101.995 52.76C103.035 52.76 103.942 52.9333 104.715 53.28C105.502 53.6133 106.108 54.0933 106.535 54.72C106.975 55.3333 107.195 56.06 107.195 56.9C107.195 57.66 107.035 58.3733 106.715 59.04C106.395 59.7067 105.775 60.4667 104.855 61.32L101.635 64.36H107.655ZM114.392 53V67H111.152V55.6H108.352V53H114.392Z" fill="#333333"/>
</svg>
