<svg width="16" height="16" viewBox="0 0 16 16" fill="none" xmlns="http://www.w3.org/2000/svg">
<path d="M8 16C12.4183 16 16 12.4183 16 8C16 3.58172 12.4183 0 8 0C3.58172 0 0 3.58172 0 8C0 12.4183 3.58172 16 8 16Z" fill="#F0F0F0"/>
<path d="M1.65376 3.12938C1.02532 3.94688 0.551572 4.88938 0.275635 5.91313H4.43751L1.65376 3.12938Z" fill="#0052B4"/>
<path d="M15.7243 5.91313C15.4484 4.88938 14.9746 3.94719 14.3462 3.12938L11.5627 5.91313H15.7243Z" fill="#0052B4"/>
<path d="M0.275635 10.0869C0.551572 11.1106 1.02532 12.0528 1.65376 12.8706L4.4372 10.0869H0.275635Z" fill="#0052B4"/>
<path d="M12.8705 1.65376C12.053 1.02532 11.1105 0.551572 10.0868 0.275635V4.43751L12.8705 1.65376Z" fill="#0052B4"/>
<path d="M3.12939 14.3462C3.94689 14.9747 4.88939 15.4484 5.91314 15.7244V11.5628L3.12939 14.3462Z" fill="#0052B4"/>
<path d="M5.91308 0.275635C4.88933 0.551572 3.94714 1.02532 3.12964 1.65376L5.91308 4.4372V0.275635Z" fill="#0052B4"/>
<path d="M10.0869 15.7244C11.1106 15.4484 12.0528 14.9747 12.8703 14.3462L10.0865 11.5628L10.0869 15.7244Z" fill="#0052B4"/>
<path d="M11.5627 10.0869L14.3465 12.8706C14.9749 12.0531 15.4487 11.1106 15.7246 10.0869H11.5627Z" fill="#0052B4"/>
<path d="M15.9322 6.95656H9.04344V0.0678125C8.70188 0.023125 8.35375 0 8 0C7.64625 0 7.29813 0.023125 6.95656 0.0678125V6.95656H0.0678125C0.023125 7.29813 0 7.64625 0 8C0 8.35375 0.023125 8.70188 0.0678125 9.04344H6.95656V15.9322C7.29813 15.9766 7.64625 16 8 16C8.35375 16 8.70188 15.9769 9.04344 15.9322V9.04344H15.9322C15.9766 8.70188 16 8.35375 16 8C16 7.64625 15.9769 7.29813 15.9322 6.95656Z" fill="#D80027"/>
<path d="M10.087 10.0869L13.657 13.6569C13.8211 13.4928 13.978 13.3213 14.1273 13.1434L11.0711 10.0872L10.087 10.0869Z" fill="#D80027"/>
<path d="M5.91314 10.0869L2.34314 13.6569C2.5072 13.8209 2.67876 13.9778 2.85658 14.1272L5.91283 11.0709L5.91314 10.0869Z" fill="#D80027"/>
<path d="M5.91312 5.91313L2.34312 2.34313C2.17905 2.50719 2.02218 2.67876 1.8728 2.85657L4.92905 5.91282L5.91312 5.91313Z" fill="#D80027"/>
<path d="M10.087 5.9131L13.657 2.3431C13.493 2.17904 13.3214 2.02216 13.1436 1.87279L10.0873 4.92904V5.9131H10.087Z" fill="#D80027"/>
</svg>
