<svg width="16" height="16" viewBox="0 0 16 16" fill="none" xmlns="http://www.w3.org/2000/svg">
<path d="M8 0C4.51687 0 1.55406 2.22625 0.455933 5.33344H15.5444C14.4459 2.22625 11.4831 0 8 0Z" fill="#F0F0F0"/>
<path d="M0.455938 5.33344C0.160938 6.1675 0 7.065 0 8C0 8.935 0.160938 9.8325 0.455938 10.6666H15.5444C15.8391 9.8325 16 8.935 16 8C16 7.065 15.8391 6.1675 15.5441 5.33344H0.455938Z" fill="#0052B4"/>
<path d="M7.99999 16C11.4831 16 14.4459 13.7737 15.5441 10.6666H0.455933C1.55406 13.7737 4.51687 16 7.99999 16Z" fill="#D80027"/>
</svg>
