<svg width="142" height="72" viewBox="0 0 142 72" fill="none" xmlns="http://www.w3.org/2000/svg">
<path d="M14.688 31.4H23.28V58.568C23.28 60.328 22.64 61.848 21.36 63.128C20.112 64.376 18.608 65 16.848 65H14.688V71.576H9.936V65H1.344V37.832C1.344 36.072 1.968 34.568 3.216 33.32C4.496 32.04 6.016 31.4 7.776 31.4H9.936V27.176H14.688V31.4ZM6.048 37.832V60.296H9.936V36.104H7.776C7.456 36.104 7.168 36.184 6.912 36.344C6.656 36.504 6.448 36.712 6.288 36.968C6.128 37.224 6.048 37.512 6.048 37.832ZM18.576 58.568V36.104H14.688V60.296H16.848C17.328 60.296 17.728 60.136 18.048 59.816C18.4 59.464 18.576 59.048 18.576 58.568ZM32.3854 31.4H39.4894V58.568C39.4894 60.328 38.8654 61.848 37.6174 63.128C36.3694 64.376 34.8494 65 33.0574 65H25.9534V37.832C25.9534 36.072 26.5774 34.568 27.8254 33.32C29.1054 32.04 30.6254 31.4 32.3854 31.4ZM34.7854 58.568V36.104H32.3854C31.9054 36.104 31.4894 36.28 31.1374 36.632C30.8174 36.952 30.6574 37.352 30.6574 37.832V60.296H33.0574C33.5374 60.296 33.9374 60.136 34.2574 59.816C34.6094 59.464 34.7854 59.048 34.7854 58.568ZM51.2441 31.4H56.8601V65H52.1561V36.104H51.2441C50.7321 36.104 50.3161 36.312 49.9961 36.728C49.7081 37.112 49.5321 37.56 49.4681 38.072L47.3081 65H40.8281V60.296H42.9401L44.8121 37.592C44.9721 35.8 45.6601 34.328 46.8761 33.176C48.0921 31.992 49.5481 31.4 51.2441 31.4ZM69.2096 65H64.3136H59.6096V31.4H64.3136V52.184H66.2816C66.6976 52.184 67.0816 52.216 67.4336 52.28C67.8176 52.344 68.2656 52.472 68.7776 52.664C69.3216 52.824 69.8016 53.096 70.2176 53.48C70.6656 53.864 71.0816 54.344 71.4656 54.92C71.8496 55.464 72.1536 56.2 72.3776 57.128C72.6016 58.024 72.7136 59.048 72.7136 60.2V65H69.2096ZM64.3136 60.296H68.2976C68.2976 59.208 68.1056 58.376 67.7216 57.8C67.3376 57.224 66.8576 56.936 66.2816 56.936H64.3136V60.296ZM82.0785 47.576C83.7745 47.576 85.2305 48.168 86.4465 49.352C87.6625 50.504 88.3665 51.976 88.5585 53.768L89.7105 65H85.0065L83.8545 54.248C83.7905 53.704 83.5985 53.24 83.2785 52.856C82.9905 52.472 82.5905 52.28 82.0785 52.28H80.1105V65H75.4065V31.4H80.1105V39.464H82.0785C82.3665 39.464 82.5745 39.448 82.7025 39.416C82.8625 39.352 83.0545 39.16 83.2785 38.84C83.5345 38.488 83.7265 37.976 83.8545 37.304L85.0065 31.4H89.8065L88.5105 38.216C88.2545 39.432 87.8705 40.472 87.3585 41.336C86.8465 42.168 86.2545 42.776 85.5825 43.16C84.9425 43.544 84.3345 43.816 83.7585 43.976C83.2145 44.136 82.6545 44.216 82.0785 44.216H80.1105V47.576H82.0785ZM101.588 31.4H107.204V65H102.5V36.104H101.588C101.076 36.104 100.66 36.312 100.34 36.728C100.052 37.112 99.8759 37.56 99.8119 38.072L97.6519 65H91.1719V60.296H93.2839L95.1559 37.592C95.3159 35.8 96.0039 34.328 97.2199 33.176C98.4359 31.992 99.8919 31.4 101.588 31.4ZM116.385 31.4H123.489V58.568C123.489 60.328 122.865 61.848 121.617 63.128C120.369 64.376 118.849 65 117.057 65H109.953V37.832C109.953 36.072 110.577 34.568 111.825 33.32C113.105 32.04 114.625 31.4 116.385 31.4ZM118.785 58.568V36.104H116.385C115.905 36.104 115.489 36.28 115.137 36.632C114.817 36.952 114.657 37.352 114.657 37.832V60.296H117.057C117.537 60.296 117.937 60.136 118.257 59.816C118.609 59.464 118.785 59.048 118.785 58.568ZM126.172 31.4H139.804V51.08C139.804 52.84 139.164 54.36 137.884 55.64C136.636 56.888 135.132 57.512 133.372 57.512H130.876V65H126.172V31.4ZM135.1 51.08V36.104H130.876V52.808H133.372C133.852 52.808 134.252 52.648 134.572 52.328C134.924 51.976 135.1 51.56 135.1 51.08Z" fill="white"/>
<path d="M6.408 4.2H8.76V21H6.408V12.264L4.032 11.808V21H1.68V6.576H0.672V4.2H4.032V9.528L6.408 9.984V4.2ZM16.9819 4.2H19.3339V21H16.9819V12.312L14.6059 15.432V21H12.2539V4.2H14.6059V11.976L16.9819 8.88V4.2ZM31.0119 12.288C31.8439 12.288 32.5639 12.584 33.1719 13.176C33.7799 13.752 34.1319 14.488 34.2279 15.384L34.8279 21H32.4519L31.8759 15.624C31.8599 15.448 31.8199 15.288 31.7559 15.144C31.6919 15 31.5879 14.88 31.4439 14.784C31.3159 14.688 31.1719 14.64 31.0119 14.64H30.0279V21H27.6759V14.64H26.6919C26.4359 14.64 26.2279 14.736 26.0679 14.928C25.9239 15.12 25.8439 15.352 25.8279 15.624L25.2759 21H22.8999L23.4759 15.36C23.5719 14.48 23.9159 13.752 24.5079 13.176C25.1159 12.584 25.8439 12.288 26.6919 12.288H27.6759V10.608H26.6919C26.5639 10.608 26.4279 10.6 26.2839 10.584C26.1559 10.568 26.0119 10.544 25.8519 10.512C25.6919 10.464 25.5399 10.408 25.3959 10.344C25.2519 10.28 25.0999 10.2 24.9399 10.104C24.7799 9.992 24.6279 9.864 24.4839 9.72C24.3399 9.56 24.2039 9.384 24.0759 9.192C23.9639 9 23.8519 8.776 23.7399 8.52C23.6439 8.248 23.5639 7.952 23.4999 7.632L22.8279 4.2H25.2279L25.8039 7.176C25.8519 7.432 25.9079 7.64 25.9719 7.8C26.0519 7.944 26.1399 8.048 26.2359 8.112C26.3319 8.176 26.4039 8.216 26.4519 8.232C26.5159 8.248 26.5959 8.256 26.6919 8.256H27.6759V4.2H30.0279V8.256H31.0119C31.1399 8.256 31.2439 8.248 31.3239 8.232C31.4039 8.2 31.4999 8.096 31.6119 7.92C31.7239 7.744 31.8199 7.488 31.8999 7.152L32.4759 4.2H34.8519L34.2039 7.608C34.0759 8.232 33.8839 8.76 33.6279 9.192C33.3719 9.608 33.0759 9.912 32.7399 10.104C32.4199 10.296 32.1239 10.432 31.8519 10.512C31.5799 10.576 31.2999 10.608 31.0119 10.608H30.0279V12.288H31.0119ZM45.1153 4.2V8.832H42.7633V6.552H41.5633C41.4513 6.552 41.3393 6.576 41.2273 6.624C41.1153 6.672 41.0193 6.736 40.9393 6.816C40.8753 6.88 40.8193 6.968 40.7713 7.08C40.7233 7.192 40.6993 7.304 40.6993 7.416V10.248C40.9873 10.168 41.2753 10.128 41.5633 10.128H43.9393V12.48H41.5633C41.3233 12.48 41.1153 12.568 40.9393 12.744C40.7793 12.904 40.6993 13.104 40.6993 13.344V18.648H41.8993C42.1393 18.648 42.3393 18.568 42.4993 18.408C42.6753 18.232 42.7633 18.024 42.7633 17.784V14.112H45.1153V17.784C45.1153 18.664 44.8033 19.424 44.1793 20.064C43.5553 20.688 42.7953 21 41.8993 21H38.3473V7.416C38.3473 6.536 38.6593 5.784 39.2833 5.16C39.9233 4.52 40.6833 4.2 41.5633 4.2H45.1153ZM48.6167 4.2H55.4327V8.856H53.0807V6.552H50.9687V21H48.6167V4.2ZM62.1489 4.2H65.7009V17.784C65.7009 18.664 65.3889 19.424 64.7649 20.064C64.1409 20.688 63.3809 21 62.4849 21H58.9329V7.416C58.9329 6.536 59.2449 5.784 59.8689 5.16C60.5089 4.52 61.2689 4.2 62.1489 4.2ZM63.3489 17.784V6.552H62.1489C61.9089 6.552 61.7009 6.64 61.5249 6.816C61.3649 6.976 61.2849 7.176 61.2849 7.416V18.648H62.4849C62.7249 18.648 62.9249 18.568 63.0849 18.408C63.2609 18.232 63.3489 18.024 63.3489 17.784ZM69.2023 4.2H76.0183V14.04C76.0183 14.92 75.6983 15.68 75.0583 16.32C74.4343 16.944 73.6823 17.256 72.8023 17.256H71.5543V21H69.2023V4.2ZM73.6663 14.04V6.552H71.5543V14.904H72.8023C73.0423 14.904 73.2423 14.824 73.4023 14.664C73.5783 14.488 73.6663 14.28 73.6663 14.04ZM82.7346 4.2H86.2866V17.784C86.2866 18.664 85.9746 19.424 85.3506 20.064C84.7266 20.688 83.9666 21 83.0706 21H79.5186V7.416C79.5186 6.536 79.8306 5.784 80.4546 5.16C81.0946 4.52 81.8546 4.2 82.7346 4.2ZM83.9346 17.784V6.552H82.7346C82.4946 6.552 82.2866 6.64 82.1106 6.816C81.9506 6.976 81.8706 7.176 81.8706 7.416V18.648H83.0706C83.3106 18.648 83.5106 18.568 83.6706 18.408C83.8466 18.232 83.9346 18.024 83.9346 17.784ZM96.7626 18.792H97.9866V24.288H95.6346V21H91.1226V23.232H88.7706V18.792H89.9946V7.416C89.9946 6.536 90.3066 5.784 90.9306 5.16C91.5546 4.52 92.3146 4.2 93.2106 4.2H96.7626V18.792ZM94.4106 18.792V6.552H93.2106C92.9706 6.552 92.7626 6.64 92.5866 6.816C92.4266 6.976 92.3466 7.176 92.3466 7.416V18.792H94.4106ZM107.833 10.56H105.481V6.552H103.441V17.808C103.441 18.032 103.521 18.232 103.681 18.408C103.857 18.568 104.057 18.648 104.281 18.648H105.481V14.88H107.833V21H104.281C103.401 21 102.649 20.688 102.025 20.064C101.401 19.44 101.089 18.688 101.089 17.808V4.2H107.833V10.56ZM114.67 12.288C115.518 12.288 116.246 12.584 116.854 13.176C117.462 13.752 117.814 14.488 117.91 15.384L118.486 21H116.134L115.558 15.624C115.526 15.352 115.43 15.12 115.27 14.928C115.126 14.736 114.926 14.64 114.67 14.64H113.686V21H111.334V4.2H113.686V8.232H114.67C114.814 8.232 114.918 8.224 114.982 8.208C115.062 8.176 115.158 8.08 115.27 7.92C115.398 7.744 115.494 7.488 115.558 7.152L116.134 4.2H118.534L117.886 7.608C117.758 8.216 117.566 8.736 117.31 9.168C117.054 9.584 116.758 9.888 116.422 10.08C116.102 10.272 115.798 10.408 115.51 10.488C115.238 10.568 114.958 10.608 114.67 10.608H113.686V12.288H114.67ZM126.777 4.2H129.129V21H126.777V12.312L124.401 15.432V21H122.049V4.2H124.401V11.976L126.777 8.88V4.2ZM137.351 4.2H139.703V21H137.351V12.312L134.975 15.432V21H132.623V4.2H134.975V11.976L137.351 8.88V4.2ZM137.735 0.144V2.448L134.591 3.528V1.224L137.735 0.144Z" fill="#D4344C"/>
</svg>
