<svg width="142" height="72" viewBox="0 0 142 72" fill="none" xmlns="http://www.w3.org/2000/svg">
<path d="M14.688 31.4H23.28V58.568C23.28 60.328 22.64 61.848 21.36 63.128C20.112 64.376 18.608 65 16.848 65H14.688V71.576H9.936V65H1.344V37.832C1.344 36.072 1.968 34.568 3.216 33.32C4.496 32.04 6.016 31.4 7.776 31.4H9.936V27.176H14.688V31.4ZM6.048 37.832V60.296H9.936V36.104H7.776C7.456 36.104 7.168 36.184 6.912 36.344C6.656 36.504 6.448 36.712 6.288 36.968C6.128 37.224 6.048 37.512 6.048 37.832ZM18.576 58.568V36.104H14.688V60.296H16.848C17.328 60.296 17.728 60.136 18.048 59.816C18.4 59.464 18.576 59.048 18.576 58.568ZM32.3854 31.4H39.4894V58.568C39.4894 60.328 38.8654 61.848 37.6174 63.128C36.3694 64.376 34.8494 65 33.0574 65H25.9534V37.832C25.9534 36.072 26.5774 34.568 27.8254 33.32C29.1054 32.04 30.6254 31.4 32.3854 31.4ZM34.7854 58.568V36.104H32.3854C31.9054 36.104 31.4894 36.28 31.1374 36.632C30.8174 36.952 30.6574 37.352 30.6574 37.832V60.296H33.0574C33.5374 60.296 33.9374 60.136 34.2574 59.816C34.6094 59.464 34.7854 59.048 34.7854 58.568ZM51.2441 31.4H56.8601V65H52.1561V36.104H51.2441C50.7321 36.104 50.3161 36.312 49.9961 36.728C49.7081 37.112 49.5321 37.56 49.4681 38.072L47.3081 65H40.8281V60.296H42.9401L44.8121 37.592C44.9721 35.8 45.6601 34.328 46.8761 33.176C48.0921 31.992 49.5481 31.4 51.2441 31.4ZM69.2096 65H64.3136H59.6096V31.4H64.3136V52.184H66.2816C66.6976 52.184 67.0816 52.216 67.4336 52.28C67.8176 52.344 68.2656 52.472 68.7776 52.664C69.3216 52.824 69.8016 53.096 70.2176 53.48C70.6656 53.864 71.0816 54.344 71.4656 54.92C71.8496 55.464 72.1536 56.2 72.3776 57.128C72.6016 58.024 72.7136 59.048 72.7136 60.2V65H69.2096ZM64.3136 60.296H68.2976C68.2976 59.208 68.1056 58.376 67.7216 57.8C67.3376 57.224 66.8576 56.936 66.2816 56.936H64.3136V60.296ZM82.0785 47.576C83.7745 47.576 85.2305 48.168 86.4465 49.352C87.6625 50.504 88.3665 51.976 88.5585 53.768L89.7105 65H85.0065L83.8545 54.248C83.7905 53.704 83.5985 53.24 83.2785 52.856C82.9905 52.472 82.5905 52.28 82.0785 52.28H80.1105V65H75.4065V31.4H80.1105V39.464H82.0785C82.3665 39.464 82.5745 39.448 82.7025 39.416C82.8625 39.352 83.0545 39.16 83.2785 38.84C83.5345 38.488 83.7265 37.976 83.8545 37.304L85.0065 31.4H89.8065L88.5105 38.216C88.2545 39.432 87.8705 40.472 87.3585 41.336C86.8465 42.168 86.2545 42.776 85.5825 43.16C84.9425 43.544 84.3345 43.816 83.7585 43.976C83.2145 44.136 82.6545 44.216 82.0785 44.216H80.1105V47.576H82.0785ZM101.588 31.4H107.204V65H102.5V36.104H101.588C101.076 36.104 100.66 36.312 100.34 36.728C100.052 37.112 99.8759 37.56 99.8119 38.072L97.6519 65H91.1719V60.296H93.2839L95.1559 37.592C95.3159 35.8 96.0039 34.328 97.2199 33.176C98.4359 31.992 99.8919 31.4 101.588 31.4ZM116.385 31.4H123.489V58.568C123.489 60.328 122.865 61.848 121.617 63.128C120.369 64.376 118.849 65 117.057 65H109.953V37.832C109.953 36.072 110.577 34.568 111.825 33.32C113.105 32.04 114.625 31.4 116.385 31.4ZM118.785 58.568V36.104H116.385C115.905 36.104 115.489 36.28 115.137 36.632C114.817 36.952 114.657 37.352 114.657 37.832V60.296H117.057C117.537 60.296 117.937 60.136 118.257 59.816C118.609 59.464 118.785 59.048 118.785 58.568ZM126.172 31.4H139.804V51.08C139.804 52.84 139.164 54.36 137.884 55.64C136.636 56.888 135.132 57.512 133.372 57.512H130.876V65H126.172V31.4ZM135.1 51.08V36.104H130.876V52.808H133.372C133.852 52.808 134.252 52.648 134.572 52.328C134.924 51.976 135.1 51.56 135.1 51.08Z" fill="white"/>
<path d="M6.408 4.2H8.76V21H6.408V12.264L4.032 11.808V21H1.68V6.576H0.672V4.2H4.032V9.528L6.408 9.984V4.2ZM17.3419 4.2C17.9179 4.216 18.4379 4.368 18.9019 4.656C19.3819 4.944 19.7579 5.336 20.0299 5.832C20.3179 6.312 20.4619 6.84 20.4619 7.416V17.784C20.4619 18.664 20.1499 19.424 19.5259 20.064C18.9019 20.688 18.1419 21 17.2459 21H16.9099C16.0299 21 15.2699 20.688 14.6299 20.064C14.0059 19.424 13.6939 18.664 13.6939 17.784V7.416C13.6939 6.552 13.9979 5.808 14.6059 5.184C15.2139 4.56 15.9499 4.232 16.8139 4.2H17.3419ZM17.2459 18.648C17.4859 18.648 17.6859 18.568 17.8459 18.408C18.0219 18.232 18.1099 18.024 18.1099 17.784V7.416C18.1099 7.256 18.0699 7.112 17.9899 6.984C17.9099 6.856 17.8059 6.752 17.6779 6.672C17.5499 6.592 17.4059 6.552 17.2459 6.552H16.9099C16.6699 6.552 16.4619 6.64 16.2859 6.816C16.1259 6.976 16.0459 7.176 16.0459 7.416V17.784C16.0459 17.896 16.0699 18.008 16.1179 18.12C16.1659 18.232 16.2219 18.328 16.2859 18.408C16.3659 18.472 16.4619 18.528 16.5739 18.576C16.6859 18.624 16.7979 18.648 16.9099 18.648H17.2459ZM29.0033 10.608H27.7553V11.88H29.0033C29.8833 11.88 30.6353 12.192 31.2593 12.816C31.8833 13.44 32.2033 14.192 32.2193 15.072V21H25.4033V4.2H32.2193V7.44C32.2033 8.32 31.8833 9.072 31.2593 9.696C30.6353 10.304 29.8833 10.608 29.0033 10.608ZM27.7553 6.552V8.256H29.0033C29.2433 8.256 29.4433 8.176 29.6033 8.016C29.7793 7.84 29.8673 7.632 29.8673 7.392V6.552H27.7553ZM29.0033 14.232H27.7553V18.648H29.8673V15.096C29.8673 14.856 29.7793 14.656 29.6033 14.496C29.4433 14.32 29.2433 14.232 29.0033 14.232ZM37.1595 4.2H43.9755V8.856H41.6235V6.552H39.5115V21H37.1595V4.2ZM52.1318 4.2H55.6838V17.784C55.6838 18.664 55.3718 19.424 54.7478 20.064C54.1238 20.688 53.3638 21 52.4678 21H48.9158V7.416C48.9158 6.536 49.2278 5.784 49.8518 5.16C50.4918 4.52 51.2518 4.2 52.1318 4.2ZM53.3318 17.784V6.552H52.1318C51.8918 6.552 51.6838 6.64 51.5078 6.816C51.3478 6.976 51.2678 7.176 51.2678 7.416V18.648H52.4678C52.7078 18.648 52.9078 18.568 53.0678 18.408C53.2438 18.232 53.3318 18.024 53.3318 17.784ZM60.6251 4.2H67.4411V14.04C67.4411 14.92 67.1211 15.68 66.4811 16.32C65.8571 16.944 65.1051 17.256 64.2251 17.256H62.9771V21H60.6251V4.2ZM65.0891 14.04V6.552H62.9771V14.904H64.2251C64.4651 14.904 64.6651 14.824 64.8251 14.664C65.0011 14.488 65.0891 14.28 65.0891 14.04ZM75.5974 4.2H79.1494V17.784C79.1494 18.664 78.8374 19.424 78.2134 20.064C77.5894 20.688 76.8294 21 75.9334 21H72.3814V7.416C72.3814 6.536 72.6934 5.784 73.3174 5.16C73.9574 4.52 74.7174 4.2 75.5974 4.2ZM76.7974 17.784V6.552H75.5974C75.3574 6.552 75.1494 6.64 74.9734 6.816C74.8134 6.976 74.7334 7.176 74.7334 7.416V18.648H75.9334C76.1734 18.648 76.3734 18.568 76.5334 18.408C76.7094 18.232 76.7974 18.024 76.7974 17.784ZM91.0654 18.792H92.2894V24.288H89.9374V21H85.4254V23.232H83.0734V18.792H84.2974V7.416C84.2974 6.536 84.6094 5.784 85.2334 5.16C85.8574 4.52 86.6174 4.2 87.5134 4.2H91.0654V18.792ZM88.7134 18.792V6.552H87.5134C87.2734 6.552 87.0654 6.64 86.8894 6.816C86.7294 6.976 86.6494 7.176 86.6494 7.416V18.792H88.7134ZM103.575 10.56H101.223V6.552H99.1834V17.808C99.1834 18.032 99.2634 18.232 99.4234 18.408C99.5994 18.568 99.7994 18.648 100.023 18.648H101.223V14.88H103.575V21H100.023C99.1434 21 98.3914 20.688 97.7674 20.064C97.1434 19.44 96.8314 18.688 96.8314 17.808V4.2H103.575V10.56ZM111.853 12.288C112.701 12.288 113.429 12.584 114.037 13.176C114.645 13.752 114.997 14.488 115.093 15.384L115.669 21H113.317L112.741 15.624C112.709 15.352 112.613 15.12 112.453 14.928C112.309 14.736 112.109 14.64 111.853 14.64H110.869V21H108.517V4.2H110.869V8.232H111.853C111.997 8.232 112.101 8.224 112.165 8.208C112.245 8.176 112.341 8.08 112.453 7.92C112.581 7.744 112.677 7.488 112.741 7.152L113.317 4.2H115.717L115.069 7.608C114.941 8.216 114.749 8.736 114.493 9.168C114.237 9.584 113.941 9.888 113.605 10.08C113.285 10.272 112.981 10.408 112.693 10.488C112.421 10.568 112.141 10.608 111.853 10.608H110.869V12.288H111.853ZM125.4 4.2H127.752V21H125.4V12.312L123.024 15.432V21H120.672V4.2H123.024V11.976L125.4 8.88V4.2ZM137.414 4.2H139.766V21H137.414V12.312L135.038 15.432V21H132.686V4.2H135.038V11.976L137.414 8.88V4.2ZM137.798 0.144V2.448L134.654 3.528V1.224L137.798 0.144Z" fill="#D4344C"/>
</svg>
